<svg class="dwg" xmlns="http://www.w3.org/2000/svg" viewBox="0 0 920 440" width="920" height="440" role="img" aria-label="대안 비교 단면: A안은 공장에서 일체화한 카세트를 레일 두 줄에 거는 방식, B안은 미네랄울 인서트를 먼저 넣고 전면 커버를 덮는 방식, C안은 기성 불연 샌드위치패널을 띠 모양으로 잘라 플래싱과 관통 피스로 붙이는 방식"><style>svg.dwg{--sheet:#ffffff;--ink:#1d2329;--muted:#5f6973;--rule:#d6dbe1;--new:#c4511a;--new-tint:#fbe6da;--water:#1769c2;--bad:#b0124a;--ok:#2f7d4f;--core:#ece6d3;--core-dot:#b3a77f}@media (prefers-color-scheme:dark){svg.dwg{--sheet:#1b1f25;--ink:#e4e8ec;--muted:#9aa4ae;--rule:#333a43;--new:#f08043;--new-tint:#46281a;--water:#5aa9f6;--bad:#f0679a;--ok:#62c48e;--core:#343128;--core-dot:#71684f}}
.dwg{font-family:var(--f-body,'IBM Plex Sans KR','Noto Sans KR','Apple SD Gothic Neo','Malgun Gothic',sans-serif)}
.dwg .bg{fill:var(--sheet)}
.dwg .fl{stroke:none}
.dwg .sk{fill:none;stroke:var(--ink);stroke-width:2.2;stroke-linecap:square}
.dwg .gt{fill:none;stroke:var(--muted);stroke-width:3}
.dwg .nw{fill:none;stroke:var(--new);stroke-width:2.4;stroke-linejoin:round;stroke-linecap:round}
.dwg .nw2{fill:none;stroke:var(--new);stroke-width:1.7;stroke-linejoin:round;stroke-linecap:round}
.dwg .pc-bg{fill:var(--core)}
.dwg .pc-dot{fill:var(--core-dot)}
.dwg .pm-bg{fill:var(--new-tint)}
.dwg .pm-ln{fill:none;stroke:var(--new);stroke-width:.7;opacity:.7}
.dwg .ps-bg{fill:var(--sheet)}
.dwg .ps-ln{fill:none;stroke:var(--new);stroke-width:.6;opacity:.55}
.dwg .void{fill:var(--sheet);stroke:var(--muted);stroke-width:.8;stroke-dasharray:3 2}
.dwg .brk{fill:none;stroke:var(--muted);stroke-width:1}
.dwg .wt{fill:none;stroke:var(--water);stroke-width:1.6;stroke-dasharray:5 3}
.dwg .wt2{fill:none;stroke:var(--water);stroke-width:1.2;stroke-dasharray:3 2}
.dwg .lk{fill:none;stroke:var(--bad);stroke-width:1.6;stroke-dasharray:5 3}
.dwg .mv{fill:none;stroke:var(--ink);stroke-width:1.5}
.dwg .mk-w{fill:var(--water)}
.dwg .mk-k{fill:var(--ink)}
.dwg .mk-b{fill:var(--bad)}
.dwg .dm{fill:none;stroke:var(--muted);stroke-width:.8}
.dwg .dx{fill:var(--muted);font-size:11px;font-variant-numeric:tabular-nums}
.dwg .tx{fill:var(--ink);font-size:12px}
.dwg .ts{fill:var(--muted);font-size:11px}
.dwg .th{fill:var(--ink);font-size:13.5px;font-weight:700}
.dwg .tw{fill:var(--water);font-size:11.5px}
.dwg .tn{fill:var(--new);font-size:12px;font-weight:600}
.dwg .tb{fill:var(--bad);font-size:12px;font-weight:600}
.dwg .tk{fill:var(--ok);font-size:12px;font-weight:600}
.dwg .halo{paint-order:stroke;stroke:var(--sheet);stroke-width:3.5px;stroke-linejoin:round}
.dwg .bc{fill:var(--sheet);stroke:var(--new);stroke-width:1.2}
.dwg .bn{fill:var(--new);font-family:var(--f-mono,'IBM Plex Mono',ui-monospace,Menlo,monospace);font-size:10.5px;font-weight:600}
.dwg .ld{fill:none;stroke:var(--muted);stroke-width:.7}
.dwg .ldd{fill:var(--muted)}
.dwg .sc{fill:none;stroke:var(--ink);stroke-width:1.8}
.dwg .sl{fill:var(--bad)}
.dwg .hl{fill:none;stroke:var(--new);stroke-width:1.1;stroke-dasharray:2.5 2}
.dwg .jt{fill:none;stroke:var(--muted);stroke-width:.9;stroke-dasharray:3 2}
</style><defs><pattern id="d05-core" width="7" height="7" patternUnits="userSpaceOnUse"><rect class="pc-bg" width="7" height="7"/><circle class="pc-dot" cx="1.75" cy="1.75" r=".8"/><circle class="pc-dot" cx="5.25" cy="5.25" r=".8"/></pattern><pattern id="d05-mw" width="10" height="7" patternUnits="userSpaceOnUse"><rect class="pm-bg" width="10" height="7"/><polyline class="pm-ln" points="0,3.5 2.5,1 5,3.5 7.5,6 10,3.5"/></pattern><pattern id="d05-ms" width="12" height="9" patternUnits="userSpaceOnUse"><rect class="ps-bg" width="12" height="9"/><polyline class="ps-ln" points="0,4.5 3,1.5 6,4.5 9,7.5 12,4.5"/></pattern><marker id="d05-aw" viewBox="0 0 10 10" refX="9" refY="5" markerWidth="6" markerHeight="6" orient="auto-start-reverse"><path class="mk-w" d="M0,0 L10,5 L0,10 z"/></marker><marker id="d05-ak" viewBox="0 0 10 10" refX="9" refY="5" markerWidth="6" markerHeight="6" orient="auto-start-reverse"><path class="mk-k" d="M0,0 L10,5 L0,10 z"/></marker><marker id="d05-ab" viewBox="0 0 10 10" refX="9" refY="5" markerWidth="6" markerHeight="6" orient="auto-start-reverse"><path class="mk-b" d="M0,0 L10,5 L0,10 z"/></marker></defs><rect class="bg" width="920" height="440"/><text class="th" x="22.5" y="28.0" text-anchor="start">A안 · 걸이식 일체 카세트 (추천)</text><text class="ts" x="22.5" y="47.0" text-anchor="start">현장 부재 3종 · 노출 체결 없음</text><polygon class="fl" points="50.0,78.0 160.0,78.0 160.0,184.2 61.0,184.2 61.0,94.2 50.0,94.2" fill="url(#d05-core)"/><polygon class="fl" points="50.0,341.8 160.0,341.8 160.0,409.3 50.0,409.3" fill="url(#d05-core)"/><polygon class="void" points="50.0,184.2 61.0,184.2 61.0,94.2 50.0,94.2"/><polygon class="fl" points="45.6,331.0 156.7,331.0 156.7,293.2 159.4,293.2 159.4,246.3 144.6,246.3 144.6,211.2 45.6,211.2" fill="url(#d05-mw)"/><polygon class="fl" points="46.7,211.2 155.6,211.2 155.6,184.2 56.0,184.2 56.0,197.7" fill="url(#d05-ms)"/><polyline class="sk" points="50.0,184.2 50.0,78.0"/><polyline class="sk" points="50.0,409.3 50.0,341.8"/><polyline class="sk" points="160.0,409.3 160.0,78.0"/><polyline class="brk" points="40.1,78.0 98.4,78.0 101.7,67.2 108.3,88.8 111.6,78.0 169.9,78.0"/><polyline class="brk" points="40.1,409.3 98.4,409.3 101.7,398.5 108.3,420.1 111.6,409.3 169.9,409.3"/><polyline class="nw" points="157.8,296.8 157.8,340.4 76.4,340.4 76.4,331.0 70.9,331.0 70.9,340.4 47.8,340.4 47.8,386.8 42.3,393.1"/><polyline class="nw" points="158.4,211.2 158.4,240.9 146.8,240.9 146.8,220.2"/><polyline class="nw2" points="47.2,229.2 47.2,211.2 153.4,211.2 153.4,227.4"/><polyline class="nw2" points="47.2,313.0 47.2,331.0 78.6,331.0 78.6,338.2 83.0,338.2 83.0,331.0 146.8,331.0 146.8,322.0"/><polyline class="nw" points="59.4,130.2 59.4,121.2 55.0,121.2 55.0,197.7 45.0,211.2 45.0,377.8 39.0,384.1"/><rect class="bg" x="23.6" y="258.0" width="149.6" height="28.0"/><polyline class="brk" points="23.6,260.0 91.4,260.0 95.4,254.0 101.4,266.0 105.4,260.0 173.2,260.0"/><polyline class="brk" points="23.6,284.0 91.4,284.0 95.4,278.0 101.4,290.0 105.4,284.0 173.2,284.0"/><polyline class="ld" points="151.2,222.0 169.2,144.2"/><circle class="ldd" cx="151.2" cy="222.0" r="1.6"/><text class="ts" x="173.2" y="148.2" text-anchor="start">상부 걸이레일</text><polyline class="ld" points="105.0,238.2 169.2,216.2"/><circle class="ldd" cx="105.0" cy="238.2" r="1.6"/><text class="ts" x="173.2" y="220.2" text-anchor="start">카세트 (공장 일체)</text><polyline class="ld" points="116.0,340.4 169.2,301.8"/><circle class="ldd" cx="116.0" cy="340.4" r="1.6"/><text class="ts" x="173.2" y="305.8" text-anchor="start">스타터레일</text><text class="th" x="327.5" y="28.0" text-anchor="start">B안 · 3부재 분리형</text><text class="ts" x="327.5" y="47.0" text-anchor="start">현장 부재 4종 · 커버 하단 리벳</text><polygon class="fl" points="355.0,78.0 465.0,78.0 465.0,184.2 366.0,184.2 366.0,94.2 355.0,94.2" fill="url(#d05-core)"/><polygon class="fl" points="355.0,341.8 465.0,341.8 465.0,409.3 355.0,409.3" fill="url(#d05-core)"/><polygon class="void" points="355.0,184.2 366.0,184.2 366.0,94.2 355.0,94.2"/><polygon class="fl" points="350.6,338.2 464.4,338.2 464.4,185.1 350.6,185.1" fill="url(#d05-mw)"/><polyline class="sk" points="355.0,184.2 355.0,78.0"/><polyline class="sk" points="355.0,409.3 355.0,341.8"/><polyline class="sk" points="465.0,409.3 465.0,78.0"/><polyline class="brk" points="345.1,78.0 403.4,78.0 406.7,67.2 413.3,88.8 416.6,78.0 474.9,78.0"/><polyline class="brk" points="345.1,409.3 403.4,409.3 406.7,398.5 413.3,420.1 416.6,409.3 474.9,409.3"/><polyline class="nw" points="462.8,296.8 462.8,340.4 352.8,340.4 352.8,386.8 347.3,393.1"/><polyline class="nw" points="463.4,211.2 463.4,240.9 451.8,240.9 451.8,220.2"/><polyline class="nw2" points="352.2,229.2 352.2,211.2 458.4,211.2 458.4,227.4"/><polyline class="nw" points="364.4,130.2 364.4,121.2 359.9,121.2 359.9,197.7 350.1,211.2 350.1,377.8 344.0,384.1"/><circle class="ldd" cx="350.1" cy="361.6" r="2.6"/><rect class="bg" x="328.6" y="258.0" width="149.6" height="28.0"/><polyline class="brk" points="328.6,260.0 396.4,260.0 400.4,254.0 406.4,266.0 410.4,260.0 478.2,260.0"/><polyline class="brk" points="328.6,284.0 396.4,284.0 400.4,278.0 406.4,290.0 410.4,284.0 478.2,284.0"/><polyline class="ld" points="456.2,222.0 474.2,144.2"/><circle class="ldd" cx="456.2" cy="222.0" r="1.6"/><text class="ts" x="478.2" y="148.2" text-anchor="start">상부 걸이레일</text><polyline class="ld" points="350.1,238.2 474.2,184.7"/><circle class="ldd" cx="350.1" cy="238.2" r="1.6"/><text class="ts" x="478.2" y="188.7" text-anchor="start">전면 커버 (공용)</text><polyline class="ld" points="410.0,242.7 474.2,238.7"/><circle class="ldd" cx="410.0" cy="242.7" r="1.6"/><text class="ts" x="478.2" y="242.7" text-anchor="start">미네랄울 인서트</text><polyline class="ld" points="350.1,361.6 474.2,297.3"/><circle class="ldd" cx="350.1" cy="361.6" r="1.6"/><text class="ts" x="478.2" y="301.3" text-anchor="start">하단 리벳 (노출)</text><polyline class="ld" points="421.0,340.4 474.2,328.8"/><circle class="ldd" cx="421.0" cy="340.4" r="1.6"/><text class="ts" x="478.2" y="332.8" text-anchor="start">스타터레일</text><text class="th" x="632.5" y="28.0" text-anchor="start">C안 · 기성 불연패널 스트립</text><text class="ts" x="632.5" y="47.0" text-anchor="start">금형 불필요 · 관통 피스 노출</text><polygon class="fl" points="660.0,78.0 770.0,78.0 770.0,184.2 671.0,184.2 671.0,94.2 660.0,94.2" fill="url(#d05-core)"/><polygon class="fl" points="660.0,341.8 770.0,341.8 770.0,409.3 660.0,409.3" fill="url(#d05-core)"/><polygon class="void" points="660.0,184.2 671.0,184.2 671.0,94.2 660.0,94.2"/><polygon class="fl" points="655.0,331.0 768.9,331.0 768.9,189.6 655.0,189.6" fill="url(#d05-mw)"/><polyline class="sk" points="660.0,184.2 660.0,78.0"/><polyline class="sk" points="660.0,409.3 660.0,341.8"/><polyline class="sk" points="770.0,409.3 770.0,78.0"/><polyline class="brk" points="650.1,78.0 708.4,78.0 711.7,67.2 718.3,88.8 721.6,78.0 779.9,78.0"/><polyline class="brk" points="650.1,409.3 708.4,409.3 711.7,398.5 718.3,420.1 721.6,409.3 779.9,409.3"/><polyline class="nw" points="655.0,331.0 655.0,189.6"/><polyline class="nw2" points="768.9,331.0 768.9,189.6"/><polyline class="nw" points="652.3,238.2 652.3,213.0 665.0,199.5 665.0,121.2 669.4,121.2"/><circle class="ldd" cx="652.3" cy="227.4" r="2.6"/><polyline class="nw" points="767.8,296.8 767.8,340.4 657.8,340.4 657.8,386.8 652.3,393.1"/><polyline class="sc" points="651.2,309.8 651.2,319.8"/><polyline class="sc" points="651.2,314.8 783.2,314.8"/><rect class="bg" x="633.6" y="258.0" width="149.6" height="28.0"/><polyline class="brk" points="633.6,260.0 701.4,260.0 705.4,254.0 711.4,266.0 715.4,260.0 783.2,260.0"/><polyline class="brk" points="633.6,284.0 701.4,284.0 705.4,278.0 711.4,290.0 715.4,284.0 783.2,284.0"/><polyline class="ld" points="652.3,227.4 779.2,126.2"/><circle class="ldd" cx="652.3" cy="227.4" r="1.6"/><text class="ts" x="783.2" y="130.2" text-anchor="start">Z-플래싱 + 리벳</text><polyline class="ld" points="715.0,242.7 779.2,216.2"/><circle class="ldd" cx="715.0" cy="242.7" r="1.6"/><text class="ts" x="783.2" y="220.2" text-anchor="start">불연패널 스트립</text><polyline class="ld" points="704.0,314.8 779.2,291.0"/><circle class="ldd" cx="704.0" cy="314.8" r="1.6"/><text class="ts" x="783.2" y="295.0" text-anchor="start">관통 피스 (노출)</text><polyline class="ld" points="726.0,340.4 779.2,330.6"/><circle class="ldd" cx="726.0" cy="340.4" r="1.6"/><text class="ts" x="783.2" y="334.6" text-anchor="start">하부 물끊기</text></svg>